<svg xmlns="http://www.w3.org/2000/svg" width="68.571" height="80" viewBox="0 0 68.571 80">
  <path id="ic_local_mall_24px" d="M63.952,20.048H56.333a19.048,19.048,0,1,0-38.1,0H10.619a7.609,7.609,0,0,0-7.581,7.619L3,73.381A7.641,7.641,0,0,0,10.619,81H63.952a7.641,7.641,0,0,0,7.619-7.619V27.667A7.641,7.641,0,0,0,63.952,20.048ZM37.286,8.619A11.413,11.413,0,0,1,48.714,20.048H25.857A11.413,11.413,0,0,1,37.286,8.619Zm0,38.1A19.055,19.055,0,0,1,18.238,27.667h7.619a11.429,11.429,0,0,0,22.857,0h7.619A19.055,19.055,0,0,1,37.286,46.714Z" transform="translate(-3 -1)" fill="#00d3ff"/>
</svg>
